<?xml version="1.0" encoding="UTF-8" standalone="no"?>
<!DOCTYPE svg PUBLIC "-//W3C//DTD SVG 1.1//EN" "http://www.w3.org/Graphics/SVG/1.1/DTD/svg11.dtd">
<svg width="100%" height="100%" viewBox="0 0 2400 2400" version="1.1" xmlns="http://www.w3.org/2000/svg" xmlns:xlink="http://www.w3.org/1999/xlink" xml:space="preserve" xmlns:serif="http://www.serif.com/" style="fill-rule:evenodd;clip-rule:evenodd;stroke-linejoin:round;stroke-miterlimit:2;">
    <g id="Bottom" transform="matrix(1.62783,0,0,0.629783,-673.743,973.857)">
        <path d="M724.257,1644.51C724.257,1505.47 677.007,444.023 677.007,263.777C677.007,-7.715 884.022,-42.03 1139.01,-42.03C1393.99,-42.03 1601.01,-7.715 1601.01,263.777C1601.01,474.847 1530.13,1485.15 1530.13,1644.51C1530.13,1865.45 1349.58,2044.82 1127.19,2044.82C904.807,2044.82 724.257,1865.45 724.257,1644.51Z" style="fill:rgb(170,102,102);"/>
    </g>
    <g transform="matrix(1.62783,0,0,1.62783,-759.587,-1169.95)">
        <path d="M1318.81,1039.92C1234.94,1108.06 1304.24,1342.73 1250.6,1381.67C1221.15,1403.05 1165.91,1415.41 1115.38,1381.67C1074.32,1354.25 1128.74,1187.21 1104.54,1123.92C1082.64,1066.63 741.341,859.009 850.845,824.135C1159.18,725.936 1203.79,1001.19 1219.89,989.265C1371.38,877.045 1634.43,702.519 1753.85,972.835C1769.35,1007.92 1402.69,971.784 1318.81,1039.92Z" style="fill:rgb(195,147,147);"/>
    </g>
</svg>
